<?xml version="1.0" encoding="utf-8"?>
<!-- Generator: Adobe Illustrator 17.0.0, SVG Export Plug-In . SVG Version: 6.00 Build 0)  -->
<!DOCTYPE svg PUBLIC "-//W3C//DTD SVG 1.1//EN" "http://www.w3.org/Graphics/SVG/1.1/DTD/svg11.dtd">
<svg version="1.1" id="Слой_1" xmlns="http://www.w3.org/2000/svg" xmlns:xlink="http://www.w3.org/1999/xlink" x="0px" y="0px"
	 width="567.57px" height="131.189px" viewBox="0 0 567.57 131.189" enable-background="new 0 0 567.57 131.189"
	 xml:space="preserve">
<path fill="#E05A53" d="M221.963,12.484l-30.939,26.35l2.684,6.622c1.45,3.577,2.185,7.372,2.185,11.277
	c0,16.568-13.479,30.046-30.046,30.046c-11.197,0-21.39-6.281-26.544-15.98L220.346,0L110.981,20.239L1.617,0L82.66,70.799
	c-5.154,9.699-15.346,15.98-26.544,15.98c-16.568,0-30.046-13.479-30.046-30.046c0-3.905,0.735-7.7,2.185-11.277l2.684-6.622
	L0,12.484l7.656,32.528C6.734,48.827,6.27,52.748,6.27,56.733c0,27.485,22.361,49.846,49.846,49.846
	c14.016,0,27.088-5.933,36.336-15.757l18.529,40.367l18.529-40.367c9.248,9.824,22.321,15.757,36.336,15.757
	c27.485,0,49.846-22.361,49.846-49.846c0-3.986-0.464-7.906-1.386-11.722L221.963,12.484z M99.889,59.56L69.046,32.615l41.936,7.761
	l41.936-7.761L122.074,59.56l-11.093,24.166L99.889,59.56z"/>
<g>
	<g>
		<path fill="#2C5060" d="M270.995,3.305h7.8v6.9h-7.8V3.305z M271.295,15.064h7.259v31.679h-7.259V15.064z"/>
		<path fill="#2C5060" d="M288.035,15.064h7.26v4.92c2.04-3,4.979-5.58,9.899-5.58c7.14,0,11.279,4.8,11.279,12.18v20.159h-7.26
			V28.744c0-4.92-2.46-7.74-6.779-7.74c-4.2,0-7.14,2.94-7.14,7.86v17.879h-7.26V15.064z"/>
		<path fill="#2C5060" d="M326.734,37.983v-16.68h-4.02v-6.239h4.02V6.365h7.26v8.699h8.52v6.239h-8.52v15.54
			c0,2.819,1.44,3.96,3.9,3.96c1.62,0,3.06-0.36,4.5-1.08v5.939c-1.801,1.021-3.84,1.62-6.54,1.62
			C330.514,47.283,326.734,44.943,326.734,37.983z"/>
		<path fill="#2C5060" d="M347.194,30.903c0-9.06,6.42-16.499,15.479-16.499c10.079,0,15.179,7.92,15.179,17.039
			c0,0.48-0.06,1.681-0.12,2.04h-23.278c0.779,5.16,4.439,8.04,9.119,8.04c3.54,0,6.06-1.32,8.58-3.78l4.26,3.78
			c-3,3.6-7.14,5.939-12.96,5.939C354.273,47.463,347.194,40.804,347.194,30.903z M370.653,28.684c-0.48-4.68-3.24-8.339-8.04-8.339
			c-4.439,0-7.56,3.419-8.22,8.339H370.653z"/>
		<path fill="#2C5060" d="M385.593,2.945h7.259v43.798h-7.259V2.945z"/>
		<path fill="#2C5060" d="M402.752,2.945h7.26v43.798h-7.26V2.945z"/>
		<path fill="#2C5060" d="M419.612,3.305h7.8v6.9h-7.8V3.305z M419.912,15.064h7.259v31.679h-7.259V15.064z"/>
		<path fill="#2C5060" d="M436.592,52.683l2.699-5.459c3.36,2.1,6.96,3.359,11.279,3.359c6.48,0,10.021-3.359,10.021-9.72v-2.46
			c-2.641,3.42-5.94,5.82-11.16,5.82c-7.439,0-14.399-5.521-14.399-14.939c0-9.36,7.02-14.88,14.399-14.88
			c5.34,0,8.64,2.46,11.1,5.4v-4.74h7.26v25.199c0,5.34-1.38,9.3-4.02,11.939c-2.88,2.88-7.32,4.26-13.02,4.26
			C445.532,56.463,440.671,55.143,436.592,52.683z M460.651,29.284c0-5.22-4.26-8.76-9.3-8.76s-8.999,3.479-8.999,8.819
			c0,5.22,4.02,8.76,8.999,8.76C456.391,38.103,460.651,34.504,460.651,29.284z"/>
		<path fill="#2C5060" d="M475.112,30.903c0-9.06,6.42-16.499,15.479-16.499c10.079,0,15.179,7.92,15.179,17.039
			c0,0.48-0.06,1.681-0.12,2.04h-23.278c0.779,5.16,4.439,8.04,9.119,8.04c3.54,0,6.06-1.32,8.58-3.78l4.26,3.78
			c-3,3.6-7.14,5.939-12.96,5.939C482.191,47.463,475.112,40.804,475.112,30.903z M498.571,28.684c-0.48-4.68-3.24-8.339-8.04-8.339
			c-4.439,0-7.56,3.419-8.22,8.339H498.571z"/>
		<path fill="#2C5060" d="M513.09,15.064h7.26v4.92c2.04-3,4.98-5.58,9.9-5.58c7.14,0,11.279,4.8,11.279,12.18v20.159h-7.26V28.744
			c0-4.92-2.46-7.74-6.78-7.74c-4.199,0-7.14,2.94-7.14,7.86v17.879h-7.26V15.064z"/>
		<path fill="#2C5060" d="M551.79,37.983v-16.68h-4.02v-6.239h4.02V6.365h7.26v8.699h8.52v6.239h-8.52v15.54
			c0,2.819,1.439,3.96,3.899,3.96c1.62,0,3.061-0.36,4.5-1.08v5.939c-1.8,1.021-3.84,1.62-6.54,1.62
			C555.57,47.283,551.79,44.943,551.79,37.983z"/>
		<path fill="#2C5060" d="M269.375,62.945h11.399v15.779c2.1-2.7,5.1-5.16,9.72-5.16c6.899,0,11.039,4.56,11.039,11.939v21.239
			h-11.399V89.164c0-3.54-1.86-5.46-4.56-5.46c-2.76,0-4.8,1.92-4.8,5.46v17.579h-11.399V62.945z"/>
		<path fill="#2C5060" d="M306.094,90.544c0-9.479,6.779-16.979,16.379-16.979c11.22,0,16.38,8.22,16.38,17.76
			c0,0.72,0,1.56-0.061,2.34h-21.719c0.9,3.539,3.479,5.34,7.02,5.34c2.7,0,4.86-1.021,7.2-3.3l6.3,5.22
			c-3.12,3.959-7.62,6.6-14.1,6.6C313.293,107.523,306.094,100.743,306.094,90.544z M328.173,87.844c-0.42-3.6-2.52-5.88-5.64-5.88
			c-3,0-5.04,2.34-5.64,5.88H328.173z"/>
		<path fill="#2C5060" d="M343.714,74.284h11.399v6.54c1.859-4.439,4.859-7.319,10.259-7.08v12h-0.96
			c-5.939,0-9.299,3.42-9.299,10.919v10.08h-11.399V74.284z"/>
		<path fill="#2C5060" d="M367.474,90.544c0-9.24,7.56-16.979,17.999-16.979c10.38,0,17.88,7.62,17.88,16.979
			c0,9.239-7.561,16.979-18,16.979C374.974,107.523,367.474,99.903,367.474,90.544z M392.253,90.544c0-3.96-2.88-7.32-6.9-7.32
			c-4.14,0-6.779,3.301-6.779,7.32c0,3.96,2.88,7.319,6.899,7.319C389.613,97.863,392.253,94.563,392.253,90.544z"/>
	</g>
</g>
</svg>
